<?xml version="1.0" encoding="UTF-8"?>
<svg id="Capa_1" data-name="Capa 1" xmlns="http://www.w3.org/2000/svg" viewBox="0 0 250 44.82">
  <defs>
    <style>
      .cls-1 {
        fill: #fff;
        stroke-width: 0px;
      }
    </style>
  </defs>
  <path class="cls-1" d="m49.95,0c.03.16-.08.27-.17.38-1.25,1.67-25.45,33.89-28.88,38.47-1.82,2.43-4.14,4.16-7.01,5.16-1.21.42-2.46.66-3.74.75-.76.05-1.51.04-2.27.04-2.45,0-4.9,0-7.36,0-.17,0-.41.09-.51-.08-.1-.18.13-.31.23-.45C4.22,38.98,31.79,3.05,33.28,2.16c1.6-.95,3.31-1.6,5.14-1.92.53-.09,1.07-.17,1.61-.19.11,0,.22,0,.32-.06h9.59Z"/>
  <path class="cls-1" d="m71.37,0c.07.2-.1.31-.2.44-.93,1.24-27.58,36.75-28.71,38.23-2.56,3.37-5.96,5.34-10.13,5.98-.72.11-1.46.15-2.19.15-2.74,0-5.48,0-8.22,0-.12,0-.24,0-.36-.01-.13-.02-.16-.09-.09-.2.05-.07.1-.14.15-.21,2.06-2.74,26.31-35.08,28.8-38.34,2.48-3.24,5.76-5.17,9.79-5.83.44-.07.88-.13,1.32-.14.11,0,.22,0,.32-.06h9.52Z"/>
  <path class="cls-1" d="m156.17,33.63c.28-.37.46-.77.67-1.16,1.25-2.25,2.49-4.5,3.73-6.75,1.09-1.97,2.17-3.94,3.26-5.9,1.21-2.19,2.37-4.41,3.65-6.55,1.38-2.31,3.48-3.59,6.16-3.9.38-.04.77-.05,1.15-.05,1.57,0,3.15,0,4.72,0,.51,0,.51,0,.43.51-.38,2.14-.76,4.28-1.13,6.43-.58,3.3-1.16,6.6-1.74,9.91-.63,3.56-1.25,7.13-1.88,10.69-.41,2.34-.82,4.69-1.24,7.03-.11.63,0,.64-.77.64-2.42,0-4.83,0-7.25,0-.59,0-.6,0-.5-.58.4-2.28.8-4.57,1.2-6.85.61-3.46,1.21-6.91,1.81-10.37.21-1.2.42-2.39.63-3.59.01-.08.01-.16.02-.28-.13.04-.15.14-.19.21-.69,1.32-1.37,2.65-2.06,3.97-1.45,2.8-2.9,5.59-4.34,8.39-.99,1.91-1.98,3.82-2.97,5.73-.53,1.01-1.06,2.02-1.58,3.04-.12.24-.28.33-.54.33-2.19,0-4.38,0-6.56,0-.38,0-.4-.02-.47-.39-.28-1.67-.56-3.34-.84-5.01-.49-2.93-.99-5.85-1.48-8.78-.38-2.25-.75-4.5-1.13-6.76-.04-.26-.1-.51-.16-.82-.11.18-.1.34-.13.49-.59,3.33-1.18,6.65-1.76,9.98-.56,3.18-1.11,6.37-1.67,9.55-.08.44-.15.88-.23,1.31-.07.4-.11.43-.52.43-.82,0-1.63,0-2.45,0-1.68,0-3.37,0-5.05,0-.66,0-.66,0-.55-.63.33-1.87.66-3.74.99-5.61.46-2.6.92-5.21,1.37-7.81.65-3.7,1.3-7.41,1.95-11.11.24-1.38.46-2.77.74-4.15.49-2.46,1.87-4.22,4.16-5.27.93-.43,1.92-.6,2.94-.61,1.27,0,2.55,0,3.82,0,.07,0,.14,0,.22,0,.27.01.31.03.37.3.14.61.27,1.22.4,1.83.8,3.79,1.61,7.57,2.41,11.36.64,3.02,1.28,6.04,1.92,9.06.11.52.22,1.03.34,1.55.01.07,0,.15.12.22Z"/>
  <path class="cls-1" d="m220.6,9.31c1.51,0,3.03,0,4.54,0,.35,0,.54.12.69.43,1.47,2.95,2.94,5.89,4.42,8.84.17.33.34.66.52.99.14.26.17.26.36.02.59-.77,1.18-1.55,1.77-2.32,1.13-1.48,2.25-2.97,3.4-4.44,1.53-1.95,3.54-3.07,5.98-3.42.41-.06.84-.09,1.26-.09,2.01,0,4.02,0,6.02,0,.06,0,.12,0,.18,0,.09,0,.21-.03.25.09.03.09-.06.15-.11.21-1.08,1.34-2.16,2.68-3.23,4.02-1.95,2.43-3.9,4.85-5.85,7.28-1.54,1.91-3.07,3.82-4.62,5.72-.22.27-.23.47-.08.77,1.15,2.27,2.29,4.55,3.44,6.83,1.64,3.25,3.27,6.51,4.91,9.76.25.5.24.52-.33.52-3.02,0-6.03,0-9.05,0-.1,0-.19,0-.29,0-.14,0-.25-.06-.32-.2-.05-.11-.11-.21-.16-.32-1.68-3.33-3.35-6.66-5.03-9.98-.2-.4-.21-.41-.47-.05-1.43,1.9-2.86,3.81-4.3,5.7-.63.83-1.22,1.7-2,2.41-1.39,1.27-3,2.06-4.87,2.33-.62.09-1.24.12-1.87.12-1.84,0-3.68,0-5.52,0-.15,0-.36.07-.43-.09-.08-.16.12-.27.21-.38,2.42-3.04,4.84-6.07,7.25-9.11,2.18-2.74,4.36-5.47,6.54-8.2.2-.25.22-.46.07-.75-1.51-2.96-3-5.92-4.49-8.88-1.23-2.45-2.47-4.9-3.7-7.34-.21-.41-.19-.44.26-.44,1.55,0,3.1,0,4.65,0Z"/>
  <path class="cls-1" d="m96.22,22.09c-1.35,0-2.69,0-4.04,0-.42,0-.42,0-.54-.41-.59-2.07-1.86-3.52-3.88-4.3-.73-.28-1.51-.42-2.29-.47-1.42-.09-2.81.08-4.13.64-.95.4-1.8.95-2.58,1.63-1.92,1.68-3.07,3.82-3.71,6.26-.36,1.38-.59,2.78-.56,4.2.02,1.28.23,2.54.81,3.7.95,1.9,2.49,3.05,4.58,3.35,2.93.42,5.55-.33,7.84-2.22.85-.71,1.56-1.53,2.13-2.47.15-.24.31-.35.61-.35,2.73.01,5.46,0,8.19,0,.05,0,.1,0,.14,0,.26.02.3.07.2.31-.29.74-.63,1.46-1.01,2.15-.62,1.14-1.32,2.24-2.15,3.24-3.04,3.68-6.85,6.09-11.56,7.02-1.07.21-2.16.32-3.26.37-1.79.09-3.55-.04-5.3-.45-2.71-.63-5.04-1.93-6.88-4.04-1.19-1.37-1.99-2.97-2.5-4.71-.35-1.2-.54-2.43-.61-3.69-.18-3.32.42-6.51,1.57-9.61.82-2.21,1.99-4.22,3.48-6.03,3.01-3.65,6.84-5.96,11.48-6.89,1.1-.22,2.21-.32,3.33-.35,1.63-.05,3.24.06,4.84.38,2.17.44,4.15,1.29,5.86,2.72,1.44,1.21,2.55,2.68,3.29,4.41.62,1.45.98,2.96,1.1,4.53.02.26.06.52.06.79,0,.18-.08.27-.26.27-.11,0-.22,0-.32,0-1.31,0-2.62,0-3.93,0Z"/>
  <path class="cls-1" d="m193.51,44.5c-4.16,0-8.32,0-12.48,0-.63,0-.63,0-.52-.63.63-3.56,1.25-7.13,1.88-10.69.58-3.29,1.15-6.58,1.73-9.87.48-2.73.92-5.48,1.45-8.2.55-2.86,2.28-4.7,5.06-5.55.57-.17,1.15-.25,1.74-.25,6.58,0,13.15,0,19.73,0,.05,0,.1,0,.14,0,.29.02.33.06.28.36-.23,1.31-.46,2.63-.69,3.94-.12.67-.24,1.35-.35,2.02-.09.51-.1.52-.62.52-5.41,0-10.82,0-16.23,0-.12,0-.24,0-.36,0-.29.01-.33.04-.38.32-.12.66-.23,1.33-.34,1.99-.25,1.51-.51,3.01-.76,4.52,0,.06-.03.12-.03.18-.02.2.02.25.24.26.12,0,.24,0,.36,0,4.27,0,8.54,0,12.8,0,.12,0,.24,0,.36,0,.25.02.29.07.25.32-.08.51-.17,1.02-.26,1.53-.25,1.38-.49,2.77-.74,4.15-.01.07-.03.14-.04.21-.03.15-.11.23-.27.23-.12,0-.24,0-.36,0-4.34,0-8.68,0-13.02,0-.54,0-.55-.07-.66.56-.39,2.26-.78,4.52-1.17,6.79-.05.31,0,.35.31.37.12,0,.24,0,.36,0,5.42,0,10.84,0,16.27,0,.65,0,.65,0,.54.63-.34,1.93-.67,3.86-1.01,5.79-.01.07-.03.14-.04.21-.03.21-.15.28-.35.28-.12,0-.24,0-.36,0-4.15,0-8.3,0-12.44,0Z"/>
  <path class="cls-1" d="m115.24,44.5c-4.14,0-8.27,0-12.41,0-.12,0-.24,0-.36,0-.28-.02-.34-.08-.29-.36.09-.55.19-1.09.28-1.63.57-3.24,1.14-6.49,1.71-9.73.65-3.7,1.3-7.41,1.95-11.12.38-2.18.73-4.36,1.16-6.53.55-2.84,2.25-4.69,5.01-5.55.58-.18,1.18-.26,1.78-.26,6.59,0,13.18,0,19.77,0,.04,0,.07,0,.11,0,.3.02.34.05.28.35-.2,1.18-.41,2.37-.62,3.55-.15.86-.3,1.73-.46,2.59-.06.33-.09.35-.43.36-.12,0-.24,0-.36,0-5.37,0-10.75,0-16.12,0-.59,0-.59,0-.69.56-.35,2.1-.71,4.2-1.06,6.29-.01.07-.03.14-.03.21,0,.11.05.19.16.19.13,0,.26.01.4.01,4.28,0,8.56,0,12.84,0,.12,0,.24,0,.36,0,.25.02.3.07.26.31-.06.39-.13.78-.2,1.17-.26,1.49-.53,2.98-.8,4.47q-.09.49-.6.49c-4.36,0-8.73,0-13.09,0-.52,0-.56-.08-.67.54-.37,2.23-.76,4.45-1.14,6.68,0,.05-.02.09-.03.14-.04.27,0,.33.27.34.11,0,.22,0,.32,0,5.43,0,10.87,0,16.3,0,.85,0,.69.06.58.69-.32,1.91-.66,3.81-1,5.72-.01.07-.03.14-.04.21-.03.2-.14.3-.34.29-.13,0-.26,0-.4,0-4.14,0-8.27,0-12.41,0Z"/>
</svg>