<?xml version="1.0" encoding="utf-8"?>
<!-- Generator: Adobe Illustrator 26.0.3, SVG Export Plug-In . SVG Version: 6.00 Build 0)  -->
<svg version="1.1" id="Capa_1" xmlns="http://www.w3.org/2000/svg" xmlns:xlink="http://www.w3.org/1999/xlink" x="0px" y="0px"
	 viewBox="0 0 250 182.2" style="enable-background:new 0 0 250 182.2;" xml:space="preserve">
<style type="text/css">
	.st0{fill:#FFFFFF;}
</style>
<g>
	<g>
		<g id="Grupo_69">
			<path id="Trazado_193" class="st0" d="M181.1,71.9l-12-37h-15.8l0,0h-2l-14.6-0.1v-8.1c2.4,0.1,8.9,1,9.3-1.7v-1.7
				c0.1-2-8.1-1.7-10.3-5.3c-0.2-0.3-0.4-0.6-0.6-0.9c-0.4-0.6-1-1.2-1.6-1.9c-2.3-2.8-5.8-4.5-9.5-4.5c-1.4,0-2.8,0.1-4.2,0.3
				c-4.7,0.5-10.5,2.1-13,6.1c-0.9,1.4-1.3,3-1.3,4.6v3.9l2.3,1.8v7.4h-7.5L95,28.5l-5.4-0.4L89,28.2L73.9,40.4l-0.4,6.4l2,2.7
				l-8,25L54,117.1h13.5h38.1v-8.8V103l-4.6-9.1l9.4-6.9l0,0l3,0.8h0.1l0.2,0.1l1.5,0.4l0.5,0.6l0.1,0.1l0.1,0.1l4.2,5.5l9,11.9h7.3
				l1.6-6.4L124.8,81l1-4.7l-8.1-10.4l-4.3,0.6l-10.2-14l4.9-3.4l3.4-2.3l5.5,7.6l0,0h9.5l4-5.8l3.2,0.8l17.9,4.7l0.8,1.1v-0.1
				L172,82l0.1,3.9l-20.2,21.5l-5.8,0.7l1.7-9.7l4-0.7l0,0l0.8-1.3l7.5-12.2l-0.5-0.3l-0.4-0.3l-8.9-5.5l-2.5-11.8l-7-7.6L139,59
				l5.8,7.5c0.4,1,2.3,13,2.5,13.9l-5,36.7h38.8h14.7L181.1,71.9z M133.5,98.7l1.5,2.1l-0.8,3H131l0,0l-11-15.2l-2.5-3.4l0,0l2.4-2
				l1.6-1.3L133.5,98.7z M116,69.7l4,5.4V75l1.3,1.8l1.1,1.5l0,0l-2.4-0.1h-0.1l-0.7-0.1l-3.4,3.3l-0.6,0.6l-2.3,2.3l-3.7-1.1
				L93.7,94.6L90,97.4h-0.1l-9.7,1.2l-3-4.1l0,0l8.2-30l7.1-4.8l1.7-1.1l10.2,14.6l0,0l-0.5,0.5l-1.2,1.1l0,0L90,78.7l-6.4,1.9
				l6.4-0.9l14.2-2h0.3l5.5-6.6L116,69.7z M104.1,59.4l5.6,8l-2.1,0.4l-1.7,2.8L95.7,56.2l-0.5-0.6l-4.9-7l-0.7,0.5l-4.2,3.1l0,0
				l-4-0.4l-4.9-6.4l0.6-4.1l12.7-10.1l4.1,0.7l5.3,6.2l0.1,4.1L94.5,46L104.1,59.4z M133.7,39.1l-7.8,12.3h-7.6l-0.1-0.2l0,0l0,0
				l-7.4-10.6V27.4l5.2-1.7l0,0l4,2.3l0,0l1.2,0.6l12.5-2L133.7,39.1L133.7,39.1z M133.7,23.4c-3.2,0.1-6.3,0.4-9.4,1.1h-0.1
				c-0.8,0.2-1.6,0.3-2.4,0.5l-1.4-0.9l0,0l0,0L120,24l-2.8-1.9l0,0l-8.4,2.8l-0.2,0.1c-2.4-2.2-0.9-5.3,2.4-7.8
				c2.7-1.9,5.7-3.2,9-3.8h0.2c4.2-1,8.6,0.5,11.4,3.8c0.2,0.2,0.3,0.4,0.4,0.6c0.5,0.7,1,1.3,1.6,1.9c3,2.4,6.7,3.7,10.5,3.7v1.2
				c-3.4-0.6-6.9-1-10.4-1.1V23.4z"/>
			<path id="Trazado_194" class="st0" d="M184,127.9c0,3.7,2.9,6.8,6.6,6.9c1.8,0.3,3.8,1,3.7,2.2c-0.2,2.3-4.9,2.2-7.1-0.4
				l-3.5,3.2c1.7,2.4,4.5,3.8,7.4,3.9c3.9,0,8.1-2.2,8.5-6.4v-0.8c-0.2-4.6-3.8-5.8-7.3-6.8c-1.7-0.4-2.8-1-2.9-2
				c0.1-2.5,3.9-2.6,6.2-0.2l3.6-2.7c-1.8-2.3-4.5-3.5-7.4-3.4C187.8,121.4,184.2,123.7,184,127.9"/>
			<path id="Trazado_195" class="st0" d="M157.9,143.5v-16.4h5.8v-5.2h-17.1v5.2h5.8v16.4H157.9z"/>
			<path id="Trazado_196" class="st0" d="M173.5,144c4.5,0,8.9-2.5,8.9-7.5v-7.7c0-4.9-4.4-7.4-8.9-7.4v0.1c-4.5,0-9,2.4-8.9,7.5
				v7.7C164.6,141.6,169,144.1,173.5,144L173.5,144z M170,136.6v-7.7c0-1.6,1.8-2.4,3.5-2.4v-0.1c1.7,0,3.5,0.8,3.5,2.4v7.7
				c0,1.6-1.8,2.4-3.5,2.4v0.1C171.7,139,170,138.2,170,136.6"/>
			<path id="Trazado_197" class="st0" d="M139.7,132.9l-6.6-11h-5.2v21.6h5.5v-10.6l6.2,10.6h5.5v-21.6h-5.4V132.9z"/>
			<path id="Trazado_198" class="st0" d="M85.2,127.1v-5.2h-15v21.6h15v-5.2h-9.5v-3.2h8.8v-4.8h-8.8v-3.2L85.2,127.1z"/>
			<path id="Trazado_199" class="st0" d="M125.4,127.1v-5.2h-14.9v21.6h15v-5.2H116v-3.2h8.8v-4.8H116v-3.2L125.4,127.1z"/>
			<path id="Trazado_200" class="st0" d="M59.4,144c4.5,0,8.9-2.5,8.9-7.4h-5.5c0,3.1-7,3.1-7,0v-7.7c0-3.2,7-3.3,7,0h5.5
				c0-4.9-4.5-7.4-9-7.4c-4.4,0-8.9,2.4-8.9,7.4v7.7C50.4,141.5,54.9,144,59.4,144"/>
			<path id="Trazado_201" class="st0" d="M108,143.5v-21.6h-5.5l-4.6,10.5l-4.5-10.5h-5.5v21.6h5.5v-10.3l2.6,7.1h3.8l2.7-7.4v10.6
				L108,143.5z"/>
			<path id="Trazado_202" class="st0" d="M151.6,171h15v-5.2h-9.5v-3.2h8.8v-4.8h-8.8v-3.3h9.5v-5.1h-15V171z"/>
			<path id="Trazado_203" class="st0" d="M195.1,149.3h-5l-6.1,16.6h-7.8l7.8-14.8v-1.8h-15.3v5.1h8v0.1L168,169v2h20.4l4.2-15.5
				l1.4,6.3h-2.1l-1.2,4.8h4.8l1.4,4.3h5.9L195.1,149.3z"/>
			<path id="Trazado_204" class="st0" d="M60.5,154.6l1.7-5.2h-15V171h5.5v-7.5h6.6l1.7-5h-8.3v-3.9H60.5z"/>
			<path id="Trazado_205" class="st0" d="M99.2,156.5c-0.1-5.1-3.6-7.1-8-7.1h-8.6V171h5.5v-16.5h3.2c1.4-0.1,2.5,1,2.6,2.3
				c0.1,1.4-1,2.5-2.3,2.6c-0.1,0-0.1,0-0.2,0h-2.2v4.7l5.3,6.9h6.4v-0.4h0.1l-5.9-7C97.6,162.8,99.3,160.5,99.2,156.5"/>
			<path id="Trazado_206" class="st0" d="M100.9,171h0.4l-0.4-0.4V171z"/>
			<path id="Trazado_207" class="st0" d="M72,148.8L72,148.8c-4.5,0.1-9,2.6-8.9,7.6v7.7c0,4.9,4.4,7.4,8.9,7.4v-0.1
				c4.5,0,8.9-2.4,8.9-7.5v-7.7C80.9,151.3,76.5,148.8,72,148.8 M75.5,163.9c0,1.6-1.8,2.4-3.5,2.4v0.1c-1.8,0-3.5-0.8-3.5-2.4v-7.7
				c0-1.6,1.8-2.4,3.5-2.4v-0.1c1.7,0,3.5,0.8,3.5,2.4V163.9z"/>
			<path id="Trazado_208" class="st0" d="M116.4,154.5h1.3v-5.2h-16.8v0.1h-0.4v5.2h0.4v-0.1h5.5V171h5.5v-16.4L116.4,154.5
				L116.4,154.5z"/>
			<path id="Trazado_209" class="st0" d="M141.7,149.4h-5.5V171h14.3v-5.4h-8.8V149.4z"/>
			<path id="Trazado_210" class="st0" d="M122.6,149.4l-6.2,17.8L115,171h1.3v0.1h4.6l4.2-15.5l1.4,6.3h-2.2l-1.2,4.8h4.8l1.4,4.3
				h5.9l-7.7-21.6L122.6,149.4z"/>
		</g>
	</g>
</g>
</svg>
