<?xml version="1.0" encoding="UTF-8"?>
<svg id="Layer_1" data-name="Layer 1" xmlns="http://www.w3.org/2000/svg" xmlns:xlink="http://www.w3.org/1999/xlink" viewBox="0 0 1807.9 346.7">
  <defs>
    <style>
      .cls-1 {
        clip-path: url(#clippath);
      }

      .cls-2 {
        fill: none;
      }

      .cls-2, .cls-3 {
        stroke-width: 0px;
      }

      .cls-3 {
        fill: #fcfcfc;
      }
    </style>
    <clipPath id="clippath">
      <rect class="cls-2" width="1807.9" height="346.6"/>
    </clipPath>
  </defs>
  <g class="cls-1">
    <path class="cls-3" d="m257.8,262.7V84C257.8,32.7,288.1,0,342.5,0s84.7,31.3,84.7,84v178.7c0,53.6-27.7,84-84.7,84s-84.7-30.3-84.7-84m84.7,25.1c7.5,0,10.8-5.4,10.8-12.9V71.7c0-7.1-3.5-12.9-10.8-12.9s-10.8,5.4-10.8,12.9v203.2c0,7.5,3.3,12.9,10.8,12.9"/>
    <path class="cls-3" d="m447.4,269.5V80c0-48.9,29.9-80,83.7-80s82.5,29.6,82.5,80v48h-71.7v-56.4c0-7.1-3.5-12.7-10.8-12.7s-10.8,5.4-10.8,12.7v203.9c0,7.1,3.3,12.5,10.8,12.5s10.8-5.4,10.8-12.5v-65.4h71.7v59.5c0,46.6-28.9,77.1-83.7,77.1s-82.5-29.6-82.5-77.1v-.1Z"/>
    <polygon class="cls-3" points="664.5 65.8 621 65.8 621 4.7 778.6 4.7 778.6 65.8 735.1 65.8 735.1 341.9 664.6 341.9 664.6 65.8 664.5 65.8"/>
    <polygon class="cls-3" points="795.6 4.7 931.5 4.7 931.5 63.5 866.1 63.5 866.1 136.9 920.9 136.9 920.9 195.7 866.1 195.7 866.1 283.2 931.5 283.2 931.5 342 795.6 342 795.6 4.7"/>
    <polygon class="cls-3" points="948.5 277.7 1021.6 63.9 948.9 63.9 948.9 4.7 1090.5 4.7 1090.5 70.1 1018.1 282.7 1091.9 282.7 1091.9 342 948.4 342 948.4 277.8 948.5 277.7"/>
    <path class="cls-3" d="m1108.5,272.8V4.7h71v268.8c0,7.5,4,13.2,11.8,13.2s11.8-5.6,11.8-13.2V4.7h71v268.1c0,45.6-28,73.8-82.8,73.8s-82.8-28.2-82.8-73.8Z"/>
    <path class="cls-3" d="m1582.7,4.7h109.1l40,337.2h-73.6l-6.1-74.3h-27.8l-4.9,74.3h-72L1582.7,4.7Zm65.6,204.1l-11.1-144.4h-.5l-9.2,144.4h20.8Z"/>
    <path class="cls-3" d="m1732.3,91.1v-48.1c0-21.7,13.6-38.4,37.8-38.4s37.8,16.6,37.8,38.4v48.1c0,21.7-13.6,38.5-37.8,38.5s-37.8-16.8-37.8-38.5m37.8,30.6c18.8,0,29.9-12.6,29.9-31.4v-46.4c0-18.8-11.1-31.3-29.9-31.3s-29.8,13-29.8,31.3v46.4c0,18.3,10.9,31.4,29.8,31.4m-18.9-94.8h20.2c13,0,19.1,5.4,19.1,19.2s-4.6,17.2-11.2,19c8.9,1.2,11.1,4.3,11.1,11.4v27.8h-16.8v-27.7c0-3.6-1.2-5-5.8-5v32.7h-16.6V26.9Zm17.3,31.7c3.9,0,5.3-2.4,5.3-8.6v-2.6c0-5.1-1.1-7.5-5.3-7.5h-.7v18.7h.7Z"/>
    <polygon class="cls-3" points="61.1 4.1 0 4.1 0 65.3 0 341.4 61.1 341.4 61.1 65.3 87.2 65.3 87.2 341.9 148.4 341.9 148.4 65.3 174.5 65.3 174.5 341.9 235.6 341.9 235.6 65.3 235.6 4.7 235.6 4.1 61.1 4.1"/>
    <polygon class="cls-3" points="1358.5 4.1 1297.4 4.1 1297.4 65.3 1297.4 341.4 1358.5 341.4 1358.5 65.3 1384.6 65.3 1384.6 341.9 1445.8 341.9 1445.8 65.3 1471.9 65.3 1471.9 341.9 1533 341.9 1533 65.3 1533 4.7 1533 4.1 1358.5 4.1"/>
  </g>
</svg>